<?xml version="1.0" encoding="UTF-8" standalone="no"?>
<!-- Created with Inkscape (http://www.inkscape.org/) -->

<svg
   width="720"
   height="720"
   viewBox="0 0 190.5 190.5"
   version="1.1"
   id="svg1"
   xml:space="preserve"
   xmlns="http://www.w3.org/2000/svg"
   xmlns:svg="http://www.w3.org/2000/svg"><defs
     id="defs1" /><g
     id="layer1"><path
       style="fill:#d40000;stroke-width:1.36989"
       d="M 32.653395,190.30142 C 24.079176,189.30528 16.934115,185.89062 10.861151,179.88679 4.5227636,173.62055 1.1925198,166.72531 0.28660305,157.99227 -0.10190194,154.24708 -0.09239958,36.372959 0.29667088,32.560238 1.9898199,15.969992 14.356717,3.104498 31.202064,0.40883153 33.385847,0.05937301 42.640869,6.2623123e-4 95.604119,3.5688335e-5 157.10164,-6.4874274e-4 157.47366,0.00262102 160.5575,0.57987671 c 3.9201,0.73372769 6.60722,1.62340779 10.01825,3.31695429 10.02577,4.9777149 17.03393,13.936736 19.40904,24.811912 0.49023,2.244723 0.51521,5.465438 0.51521,66.448261 0,60.548326 -0.028,64.220056 -0.50623,66.457706 -1.60346,7.50218 -5.01231,13.68528 -10.33697,18.74957 -5.17228,4.91938 -11.57098,8.15904 -19.20419,9.72309 -1.87439,0.38405 -124.567041,0.58956 -127.79926,0.21405 z m 88.296165,-16.42876 c 6.03785,-1.97976 10.62856,-6.27741 14.13557,-13.23322 1.82163,-3.61304 1.9596,-3.91202 5.14358,-11.14596 6.54084,-14.86065 8.82769,-21.85802 9.45656,-28.93559 0.53712,-6.04514 -0.45613,-11.22225 -3.15514,-16.44529 l -0.55588,-1.07574 0.86041,-0.82994 c 1.09048,-1.05189 2.45854,-3.893832 3.03354,-6.301764 0.69177,-2.896925 0.39739,-9.161265 -0.5837,-12.420995 -1.64576,-5.468141 -5.15576,-10.758372 -7.13802,-10.758372 -1.271,0 -1.74411,0.242694 -2.21155,1.134524 -0.66098,1.261093 -0.48097,1.95554 1.006,3.881145 2.61735,3.38939 4.0844,7.372439 4.4132,11.981897 0.3237,4.537833 -0.98208,8.877929 -2.90343,9.650245 -0.77364,0.310982 -1.02017,0.284757 -1.97701,-0.210337 -2.22078,-1.149065 -5.98011,-2.698792 -9.00114,-3.710579 -5.86433,-1.964044 -9.63633,-4.461946 -11.06132,-7.325059 -1.91837,-3.854449 -0.78068,-11.865776 2.50634,-17.648988 2.50741,-4.411541 4.85935,-5.729302 11.61665,-6.508644 8.21237,-0.947157 15.62794,-0.77907 17.5583,0.397989 1.10262,0.672331 1.83307,1.825865 1.83307,2.894775 0,1.006787 1.09622,2.110641 2.28064,2.296525 0.81003,0.127089 1.17074,0.02178 1.82404,-0.532617 0.72718,-0.617132 0.8104,-0.856601 0.77762,-2.237782 -0.0769,-3.243253 -2.15304,-5.878516 -5.7593,-7.310519 l -2.07594,-0.824339 -7.06699,5.57e-4 c -12.97662,9.87e-4 -17.81991,1.187657 -22.17122,5.432091 -2.35935,2.30139 -4.15967,5.385796 -5.44914,9.335726 -1.45201,4.447836 -1.71885,6.00148 -1.69906,9.892029 0.0143,2.80927 0.13322,3.801518 0.61463,5.128961 0.45522,1.255176 0.59691,2.301361 0.59691,4.407314 0,2.579434 -0.0512,2.828687 -0.77669,3.781543 -0.42716,0.561042 -1.09439,1.305548 -1.48273,1.654458 -0.89039,0.799978 -3.70152,2.153066 -5.36615,2.582906 -1.61878,0.41799 -2.54184,1.25171 -2.54184,2.29577 0,1.84198 1.35896,2.81362 3.40722,2.43609 1.46919,-0.27082 3.94911,-1.18954 5.27743,-1.95515 l 0.91791,-0.52904 v 1.47466 c 0,2.78955 -1.63183,12.66134 -2.30144,13.92257 -1.3043,2.45666 -5.19033,6.25752 -8.86276,8.66851 -2.86195,1.8789 -3.23964,2.24234 -3.23964,3.11744 0,1.05936 0.77857,2.30716 1.56035,2.50074 1.30234,0.32249 2.52308,-0.16144 5.0299,-1.99402 2.85895,-2.08998 2.81795,-2.25505 0.69268,2.78929 -1.70933,4.05706 -3.49529,7.59854 -5.17434,10.26052 -1.44926,2.29764 -1.55416,3.16051 -0.53014,4.36122 0.99406,1.16555 2.40004,1.19064 3.46255,0.0618 1.16792,-1.24088 5.04514,-8.59566 6.82909,-12.9543 1.57135,-3.83924 3.56532,-9.53391 4.2923,-12.25859 l 0.35966,-1.34799 1.09749,2.00874 c 0.60361,1.1048 1.62137,3.59228 2.26165,5.52772 1.10085,3.32751 1.21921,3.5456 2.17512,4.00793 1.3527,0.65422 2.5748,0.25798 3.19749,-1.03671 0.4203,-0.87386 0.40486,-1.06648 -0.26976,-3.36327 -1.29316,-4.40272 -3.21273,-8.31214 -5.6557,-11.51854 l -1.30319,-1.71042 0.5907,-4.24783 c 0.62731,-4.51113 1.14754,-10.81053 1.15164,-13.945063 l 0.003,-1.895058 0.91789,0.668198 c 1.70306,1.239759 5.97924,3.168265 9.67317,4.362453 2.01936,0.65282 4.94249,1.82341 6.49585,2.60132 1.55334,0.77789 2.9987,1.4892 3.21187,1.58068 0.68405,0.29354 2.55693,4.0228 3.16455,6.30127 0.92855,3.48178 1.04899,8.67359 0.2916,12.56997 -1.26147,6.4897 -3.46352,12.40059 -10.41355,27.95285 -3.51296,7.86106 -4.08549,8.96601 -5.86028,11.31045 -2.94185,3.88606 -6.70097,6.19266 -11.41923,7.00683 -7.86794,1.35772 -19.762587,-2.99792 -32.07147,-11.74403 -4.473231,-3.17848 -19.672852,-15.09959 -20.476046,-16.05942 -0.07766,-0.0927 -1.163351,-1.05247 -2.412628,-2.13257 -2.511989,-2.1718 -7.305589,-6.79627 -8.181723,-7.89301 -3.099358,-3.87981 -4.360795,-5.86642 -5.670629,-8.9306 -1.817276,-4.25126 -2.510077,-8.21203 -2.067914,-11.82238 0.455714,-3.72099 3.189408,-8.62126 6.573708,-11.783708 l 1.278901,-1.195062 0.614322,2.031 c 0.960433,3.17529 1.866663,7.04977 2.422865,10.35866 0.42114,2.50541 0.641395,3.17223 1.26552,3.83142 1.543954,1.63069 3.918516,0.56026 3.917767,-1.7661 -3.41e-4,-1.05593 -0.505821,-4.41061 -1.015888,-6.74206 l -0.176655,-0.80746 0.827082,0.58107 c 1.070997,0.7524 4.98987,2.28778 5.839308,2.28778 1.036815,0 2.152101,-1.20106 2.152101,-2.31763 0,-1.00485 -0.903398,-2.4194 -1.545145,-2.4194 -0.20594,0 -1.507886,-0.55981 -2.893214,-1.24402 -3.269276,-1.61472 -6.058647,-4.080108 -6.692372,-5.915106 -0.247977,-0.718039 -0.350208,-1.375896 -0.22718,-1.461907 1.453081,-1.015924 3.680756,-2.46934 4.014778,-2.619384 0.487456,-0.218977 1.361292,-0.777489 3.252081,-2.078589 0.734647,-0.505526 3.194825,-1.740509 5.467061,-2.744418 2.272238,-1.003923 5.783546,-2.709462 7.802902,-3.790115 2.019372,-1.08064 4.021973,-2.143672 4.450242,-2.362295 1.328498,-0.678158 6.957323,-4.486466 8.951952,-6.056642 2.652844,-2.088346 4.9685,-4.700409 6.000424,-6.768493 l 0.87728,-1.758148 -0.249254,-3.544022 c -0.438047,-6.228756 -0.32326,-8.320602 0.563605,-10.270341 2.277149,-5.006265 7.481699,-6.344707 14.261519,-3.667597 1.49483,0.590261 1.55834,0.592783 2.82427,0.11219 6.84066,-2.596984 18.33,-5.126437 25.44267,-5.601371 1.47569,-0.09854 3.03856,-0.31322 3.47307,-0.477075 1.60385,-0.604836 2.00936,-2.86864 0.72005,-4.019835 -0.48733,-0.43512 -0.97465,-0.502646 -3.16131,-0.438046 -1.42184,0.04201 -4.2311,0.302919 -6.24278,0.579805 l -3.6576,0.503431 -0.72004,-0.859206 c -2.99081,-3.568934 -7.16146,-6.776734 -11.56508,-8.895155 -1.64666,-0.792143 -3.01845,-1.443688 -3.04843,-1.447879 -0.03,-0.0042 0.44257,-2.067342 1.05012,-4.58478 0.60755,-2.517437 1.03451,-4.852842 0.9488,-5.189786 -0.28091,-1.104225 -1.1741,-1.782293 -2.34776,-1.782293 -1.75376,0 -2.2114,0.594151 -3.0047,3.901081 -1.36212,5.678027 -2.0993,9.006528 -2.0993,9.478685 0,0.861327 1.03785,1.803378 2.57984,2.341719 1.69432,0.591516 6.0998,2.81459 7.69729,3.884165 0.57338,0.383898 1.94014,1.483169 3.03728,2.442826 l 1.99476,1.744831 -2.92392,0.754956 c -1.60814,0.415227 -4.38008,1.22063 -6.15985,1.789785 -3.22024,1.029811 -3.24284,1.032705 -4.66006,0.596563 -5.62259,-1.73033 -10.22369,-1.352448 -14.169504,1.163722 -1.940912,1.237686 -3.099097,2.524539 -4.340819,4.82307 -1.630878,3.018903 -2.032556,6.786631 -1.368411,12.835732 l 0.327688,2.984566 -0.7416,1.105626 c -1.410723,2.103231 -4.78652,5.060679 -8.735949,7.653381 -1.317726,0.865037 -2.524997,1.572804 -2.682841,1.572804 -0.157844,0 -0.450004,0.193804 -0.649251,0.430661 -0.199232,0.236857 -0.539139,0.363687 -0.755321,0.281842 -0.247075,-0.09348 -0.31795,-0.02885 -0.190847,0.173992 0.13626,0.217548 0.04413,0.262982 -0.282423,0.139321 -0.26655,-0.100959 -0.416174,-0.07415 -0.332501,0.05933 0.08371,0.133622 -0.767596,0.718178 -1.891719,1.299087 -1.124127,0.580909 -2.562677,1.326789 -3.19678,1.657534 l -1.152913,0.601333 0.777214,-1.833949 c 0.943308,-2.225857 1.669826,-5.57542 1.669826,-7.698611 0,-0.863009 -0.268015,-3.093996 -0.59559,-4.957761 -0.76253,-4.338455 -0.642271,-10.007708 0.282946,-13.338536 2.283803,-8.22181 6.643709,-13.532829 15.621685,-19.029574 1.275553,-0.780951 1.5952,-2.01581 0.87986,-3.399129 -1.792129,-3.465602 -6.481846,-11.742075 -6.941973,-12.251282 -0.699039,-0.77361 -1.660116,-1.006799 -2.637854,-0.640036 -1.764917,0.662039 -1.993375,2.360425 -0.635818,4.726528 0.983034,1.713315 2.305987,4.122985 3.739453,6.811126 l 0.957423,1.79545 -2.937584,2.12659 c -3.400195,2.461478 -6.175607,5.428417 -8.701622,9.302093 -2.061331,3.161078 -3.337861,6.244772 -4.33176,10.464177 -0.955258,4.055367 -1.008085,10.097258 -0.129447,14.805343 1.036852,5.555859 0.132082,9.179018 -3.472011,13.903659 -1.891267,2.479274 -3.651015,4.086353 -6.092021,5.563501 -3.098225,1.874864 -7.767387,5.155915 -9.676527,6.799761 -1.634326,1.40722 -2.663267,2.475232 -6.113834,6.345975 -0.822716,0.92289 -1.691039,2.29629 -1.827469,2.89045 -0.0176,0.0766 -0.232083,0.5155 -0.476638,0.97526 -0.244556,0.45977 -0.598006,1.30443 -0.785445,1.877 -0.187438,0.57258 -0.449723,1.10746 -0.582857,1.18864 -0.40834,0.249 -2.467309,-4.17055 -3.013679,-6.46881 -0.415057,-1.745905 -0.512599,-3.285777 -0.499281,-7.882106 0.01641,-5.665497 0.02499,-5.74356 1.046873,-9.528124 2.065014,-7.647845 4.547052,-11.803361 10.577258,-17.708796 1.760012,-1.7236 3.318068,-3.440145 3.462346,-3.814548 0.394699,-1.024244 1.349465,-6.104841 1.87306,-9.967117 0.324646,-2.394722 0.505479,-6.406957 0.600798,-13.330138 l 0.136027,-9.904254 -0.761921,-0.893372 c -0.976333,-1.144779 -2.372591,-1.230588 -3.407613,-0.209416 -0.381276,0.376175 -0.691683,0.846395 -0.689793,1.044933 0.04746,4.982181 -0.315609,18.850461 -0.541972,20.702328 -0.752775,6.158431 -1.737649,10.951059 -2.323872,11.308516 -0.178147,0.108626 -1.461979,1.304803 -2.852962,2.658166 -5.578103,5.427245 -9.245778,11.948512 -10.958788,19.48516 -1.838526,8.088859 -1.816567,15.246131 0.0645,21.023978 1.1794,3.6226 3.482439,7.51613 5.465848,9.24053 0.786255,0.68359 0.889257,0.98326 1.210263,3.52103 0.441047,3.48674 1.110624,5.8057 2.660219,9.21322 2.882744,6.33911 7.648388,11.86571 17.299524,20.06179 2.640705,2.24259 4.864827,4.14262 4.942495,4.22231 0.538441,0.55246 10.420413,8.20176 13.284379,10.28299 6.990174,5.07973 10.026065,6.94444 15.909138,9.77167 10.459047,5.02629 18.729087,6.27034 25.948047,3.90333 z M 155.31781,56.107865 c 0.78973,-0.990543 1.43205,-3.228868 1.43205,-4.990349 0,-1.950508 -0.74288,-2.912815 -2.24863,-2.912815 -1.666,0 -2.25239,0.659372 -2.73289,3.073025 -0.79553,3.996226 -0.79557,4.070358 -0.001,4.853306 1.02254,1.00884 2.73763,0.997652 3.55149,-0.02317 z m -49.4406,-26.781609 c 0.81439,-0.76048 0.82411,-0.80797 1.28285,-6.269194 0.41066,-4.888913 0.41529,-5.592459 0.0415,-6.30549 -0.48289,-0.921299 -0.94107,-1.148764 -2.31392,-1.148764 -1.48124,0 -2.36161,1.074819 -2.37278,2.896838 -0.004,0.78222 -0.13116,2.352695 -0.28073,3.489946 -0.14961,1.137252 -0.28693,3.075293 -0.30518,4.30676 -0.0321,2.173865 -0.007,2.261694 0.85006,3.017609 1.11575,0.983581 2.05399,0.987305 3.09812,0.01225 z"
       id="path1" /></g></svg>
