<?xml version="1.0" encoding="UTF-8" standalone="no"?>
<svg
   height="24.309"
   viewBox="0 -960 800 972.36"
   width="20"
   fill="#ffff55"
   version="1.1"
   id="svg1"
   sodipodi:docname="pin.svg"
   inkscape:version="1.4 (86a8ad7, 2024-10-11)"
   xmlns:inkscape="http://www.inkscape.org/namespaces/inkscape"
   xmlns:sodipodi="http://sodipodi.sourceforge.net/DTD/sodipodi-0.dtd"
   xmlns="http://www.w3.org/2000/svg"
   xmlns:svg="http://www.w3.org/2000/svg">
  <defs
     id="defs1" />
  <sodipodi:namedview
     id="namedview1"
     pagecolor="#ffffff"
     bordercolor="#000000"
     borderopacity="0.25"
     inkscape:showpageshadow="2"
     inkscape:pageopacity="0.0"
     inkscape:pagecheckerboard="0"
     inkscape:deskcolor="#d1d1d1"
     inkscape:zoom="28.125"
     inkscape:cx="12"
     inkscape:cy="10.293333"
     inkscape:window-width="1600"
     inkscape:window-height="877"
     inkscape:window-x="-8"
     inkscape:window-y="-8"
     inkscape:window-maximized="1"
     inkscape:current-layer="g1" />
  <g
     id="g1"
     transform="matrix(1.0036461,0,0,1.0036461,4.3404196,7.840631)">
    <path
       id="path1-8"
       style="fill:#000000;fill-opacity:1;stroke-width:1.07345"
       sodipodi:type="inkscape:offset"
       inkscape:radius="18.546534"
       inkscape:original="M 393.64453 -948.13281 C 293.10554 -948.13281 204.63511 -913.37574 128.23438 -843.85938 C 51.840768 -774.34298 13.644531 -681.00293 13.644531 -563.83984 C 13.644531 -475.81724 45.311203 -388.86789 108.64453 -302.99219 C 171.97786 -217.11648 266.97786 -121.58055 393.64453 -16.382812 C 520.3112 -121.58055 615.3112 -217.11648 678.64453 -302.99219 C 741.97786 -388.86789 773.64453 -475.81724 773.64453 -563.83984 C 773.64453 -681.00293 735.44828 -774.34297 659.05469 -843.85938 C 582.65393 -913.37576 494.18351 -948.13281 393.64453 -948.13281 z M 393.60156 -812.87891 C 462.28066 -812.87891 520.24689 -789.6143 567.5 -743.08398 C 614.76025 -696.56082 638.39064 -636.81273 638.39062 -563.83984 C 638.39063 -505.87374 618.17337 -448.62273 577.74023 -392.08789 C 537.30709 -335.55305 475.94208 -270.0721 393.64453 -195.64648 C 311.34697 -270.78772 249.98197 -336.44797 209.54883 -392.625 C 169.11568 -448.80203 148.89844 -505.87374 148.89844 -563.83984 C 148.89844 -636.81273 172.51446 -696.56082 219.74609 -743.08398 C 266.97774 -789.6143 324.92963 -812.87891 393.60156 -812.87891 z M 342.11914 -739.88477 L 342.11914 -611.07031 L 213.30469 -611.07031 L 213.30469 -509.09375 L 342.11914 -509.09375 L 342.11914 -380.2793 L 445.16992 -380.2793 L 445.16992 -509.09375 L 573.98438 -509.09375 L 573.98438 -611.07031 L 445.16992 -611.07031 L 445.16992 -739.88477 L 342.11914 -739.88477 z "
       d="m 393.64453,-966.67969 c -104.81344,0 -198.49645,36.85972 -277.89258,109.10157 a 18.548388,18.548388 0 0 0 0,0.002 c -80.229768,73.00721 -120.6542938,172.54234 -120.6542937,293.73633 0,92.47075 33.4911317,183.54365 98.6210937,271.85547 64.69179,87.71768 160.67012,184.05733 288.07617,289.8691356 a 18.548388,18.548388 0 0 0 23.69922,0 C 532.90019,-107.92704 628.87852,-204.26669 693.57031,-291.98437 c 65.12997,-88.31182 98.6211,-179.38472 98.6211,-271.85547 0,-121.19399 -40.42456,-220.72911 -120.6543,-293.73633 a 18.548388,18.548388 0 0 0 0,-0.002 C 592.14096,-929.81999 498.45796,-966.67969 393.64453,-966.67969 Z m -0.043,172.34766 c 64.49076,0 116.83254,21.08449 160.88477,64.46289 a 18.548388,18.548388 0 0 0 0.002,0.002 c 43.80548,43.12227 65.35549,97.05834 65.35547,166.02735 10e-6,53.65369 -18.50103,106.86756 -57.18945,160.96289 -37.14353,51.9352 -93.68264,112.90763 -168.95313,181.97656 -75.32528,-69.73475 -131.9205,-130.90265 -169.09961,-182.55859 -38.66637,-53.72231 -57.15625,-106.72717 -57.15625,-160.38086 0,-68.97145 21.53856,-122.91007 65.31641,-166.03125 44.03035,-43.37656 96.3567,-64.46094 160.83984,-64.46094 z m -51.48242,35.90039 a 18.548388,18.548388 0 0 0 -18.54687,18.54687 v 110.26758 H 213.30469 a 18.548388,18.548388 0 0 0 -18.54688,18.54688 v 101.97656 a 18.548388,18.548388 0 0 0 18.54688,18.54688 h 110.26758 v 110.26757 a 18.548388,18.548388 0 0 0 18.54687,18.54688 h 103.05078 a 18.548388,18.548388 0 0 0 18.54688,-18.54688 v -110.26757 h 110.26757 a 18.548388,18.548388 0 0 0 18.54688,-18.54688 v -101.97656 a 18.548388,18.548388 0 0 0 -18.54688,-18.54688 H 463.7168 v -110.26758 a 18.548388,18.548388 0 0 0 -18.54688,-18.54687 z"
       transform="translate(0.577692,2.35504)" />
    <path
       id="path1"
       style="stroke-width:1.07345"
       sodipodi:type="inkscape:offset"
       inkscape:radius="-18.417341"
       inkscape:original="M 393.64453 -948.13281 C 293.10554 -948.13281 204.63511 -913.37574 128.23438 -843.85938 C 51.840768 -774.34298 13.644531 -681.00293 13.644531 -563.83984 C 13.644531 -475.81724 45.311203 -388.86789 108.64453 -302.99219 C 171.97786 -217.11648 266.97786 -121.58055 393.64453 -16.382812 C 520.3112 -121.58055 615.3112 -217.11648 678.64453 -302.99219 C 741.97786 -388.86789 773.64453 -475.81724 773.64453 -563.83984 C 773.64453 -681.00293 735.44828 -774.34297 659.05469 -843.85938 C 582.65393 -913.37576 494.18351 -948.13281 393.64453 -948.13281 z M 393.60156 -812.87891 C 462.28066 -812.87891 520.24689 -789.6143 567.5 -743.08398 C 614.76025 -696.56082 638.39064 -636.81273 638.39062 -563.83984 C 638.39063 -505.87374 618.17337 -448.62273 577.74023 -392.08789 C 537.30709 -335.55305 475.94208 -270.0721 393.64453 -195.64648 C 311.34697 -270.78772 249.98197 -336.44797 209.54883 -392.625 C 169.11568 -448.80203 148.89844 -505.87374 148.89844 -563.83984 C 148.89844 -636.81273 172.51446 -696.56082 219.74609 -743.08398 C 266.97774 -789.6143 324.92963 -812.87891 393.60156 -812.87891 z M 342.11914 -739.88477 L 342.11914 -611.07031 L 213.30469 -611.07031 L 213.30469 -509.09375 L 342.11914 -509.09375 L 342.11914 -380.2793 L 445.16992 -380.2793 L 445.16992 -509.09375 L 573.98438 -509.09375 L 573.98438 -611.07031 L 445.16992 -611.07031 L 445.16992 -739.88477 L 342.11914 -739.88477 z "
       d="m 393.64453,-929.71484 c -96.29431,0 -179.58942,32.66865 -253.01562,99.47851 v -0.002 c -72.584179,66.0499 -108.56641,153.23816 -108.56641,266.39844 0,83.60543 29.85509,166.45946 91.4043,249.91601 59.99063,81.34324 150.2824,172.79057 270.17773,273.400393 119.89533,-100.609823 210.18711,-192.057153 270.17774,-273.400393 61.54921,-83.45655 91.40429,-166.31058 91.40429,-249.91601 0,-113.16028 -35.98225,-200.34853 -108.5664,-266.39844 v 0.002 c -73.42624,-66.80988 -156.72132,-99.47851 -253.01563,-99.47851 z m -0.043,98.41797 c 72.83827,0 136.38862,25.42956 186.82031,75.08984 50.68965,49.90012 76.38674,115.41931 76.38672,192.36719 10e-6,62.24847 -21.92218,123.50748 -64.08789,182.46484 -41.64794,58.23342 -103.81726,124.41335 -186.72265,199.38867 a 18.419183,18.419183 0 0 1 -24.77149,-0.0586 c -82.87627,-75.66963 -145.00541,-141.99486 -186.625,-199.82031 -42.18761,-58.61466 -64.12109,-119.72615 -64.12109,-181.97461 0,-76.94646 25.68044,-142.4638 76.3418,-192.36524 50.41033,-49.66083 113.94871,-75.09179 186.77929,-75.09179 z m -33.06445,109.83007 v 110.39649 a 18.419183,18.419183 0 0 1 -18.41797,18.41797 H 231.72266 v 65.14062 h 110.39648 a 18.419183,18.419183 0 0 1 18.41797,18.41797 v 110.39648 h 66.21484 v -110.39648 a 18.419183,18.419183 0 0 1 18.41797,-18.41797 h 110.39649 v -65.14062 H 445.16992 a 18.419183,18.419183 0 0 1 -18.41797,-18.41797 V -721.4668 Z" />
  </g>
</svg>
